<svg xmlns="http://www.w3.org/2000/svg" width="840" height="880" viewBox="0 0 840 880" role="img" aria-labelledby="title desc" font-family="Arial, Helvetica, sans-serif"><title id="title">Estadísticas públicas de Lehi Salvador</title><desc id="desc">276 contribuciones; racha actual de 2 días; mayor racha de 4 días en el período.</desc><style>.tile{animation:slide .55s ease-out both}
@keyframes slide{from{opacity:0;transform:translateY(14px)}to{opacity:1;transform:translateY(0)}}
.bar{transform-box:fill-box;transform-origin:bottom;animation:grow .7s ease-out both}
@keyframes grow{from{transform:scaleY(0)}to{transform:scaleY(1)}}
.counter-strip{transform:translateY(-960px);animation:count-up 1.2s steps(12,end) both}
@keyframes count-up{from{transform:translateY(0)}to{transform:translateY(-960px)}}
@media(prefers-reduced-motion:reduce){.tile,.bar,.counter-strip{animation:none!important}}</style><rect width="840" height="880" rx="14" fill="#0d1117"/><rect x=".5" y=".5" width="839" height="879" rx="14" fill="none" stroke="#30363d"/><path d="M0 48H840" stroke="#30363d"/><circle cx="22" cy="24" r="5" fill="#ff5f56"/><circle cx="40" cy="24" r="5" fill="#ffbd2e"/><circle cx="58" cy="24" r="5" fill="#27c93f"/><text x="420.0" y="32" font-size="22" fill="#e6edf3" text-anchor="middle" font-weight="600">Resumen de GitHub</text><g class="tile" style="animation-delay:0.35s"><rect x="24" y="70" width="388" height="129" rx="9" fill="#161b22" stroke="#30363d"/><text x="46" y="101" font-size="24" fill="#9da7b3" >Racha actual</text><defs><clipPath id="counter-0"><rect x="42" y="111" width="352" height="59"/></clipPath></defs><g clip-path="url(#counter-0)"><g class="counter-strip" data-metric="current-streak" transform="translate(0 -960)" style="animation-delay:0.60s"><text x="46" y="158" font-size="54" fill="#39d353" font-weight="700">0</text><text x="46" y="238" font-size="54" fill="#39d353" font-weight="700">0</text><text x="46" y="318" font-size="54" fill="#39d353" font-weight="700">1</text><text x="46" y="398" font-size="54" fill="#39d353" font-weight="700">1</text><text x="46" y="478" font-size="54" fill="#39d353" font-weight="700">1</text><text x="46" y="558" font-size="54" fill="#39d353" font-weight="700">2</text><text x="46" y="638" font-size="54" fill="#39d353" font-weight="700">2</text><text x="46" y="718" font-size="54" fill="#39d353" font-weight="700">2</text><text x="46" y="798" font-size="54" fill="#39d353" font-weight="700">2</text><text x="46" y="878" font-size="54" fill="#39d353" font-weight="700">2</text><text x="46" y="958" font-size="54" fill="#39d353" font-weight="700">2</text><text x="46" y="1038" font-size="54" fill="#39d353" font-weight="700">2</text><text x="46" y="1118" font-size="54" fill="#39d353" font-weight="700">2</text></g></g><text x="252" y="157" font-size="23" fill="#9da7b3" >días</text><text x="46" y="186" font-size="19" fill="#9da7b3" >6 oct – 7 oct</text></g><g class="tile" style="animation-delay:0.49s"><rect x="428" y="70" width="388" height="129" rx="9" fill="#161b22" stroke="#30363d"/><text x="450" y="101" font-size="24" fill="#9da7b3" >Mayor racha</text><defs><clipPath id="counter-1"><rect x="446" y="111" width="352" height="59"/></clipPath></defs><g clip-path="url(#counter-1)"><g class="counter-strip" data-metric="longest-streak" transform="translate(0 -960)" style="animation-delay:0.74s"><text x="450" y="158" font-size="54" fill="#e6edf3" font-weight="700">0</text><text x="450" y="238" font-size="54" fill="#e6edf3" font-weight="700">1</text><text x="450" y="318" font-size="54" fill="#e6edf3" font-weight="700">2</text><text x="450" y="398" font-size="54" fill="#e6edf3" font-weight="700">2</text><text x="450" y="478" font-size="54" fill="#e6edf3" font-weight="700">3</text><text x="450" y="558" font-size="54" fill="#e6edf3" font-weight="700">3</text><text x="450" y="638" font-size="54" fill="#e6edf3" font-weight="700">4</text><text x="450" y="718" font-size="54" fill="#e6edf3" font-weight="700">4</text><text x="450" y="798" font-size="54" fill="#e6edf3" font-weight="700">4</text><text x="450" y="878" font-size="54" fill="#e6edf3" font-weight="700">4</text><text x="450" y="958" font-size="54" fill="#e6edf3" font-weight="700">4</text><text x="450" y="1038" font-size="54" fill="#e6edf3" font-weight="700">4</text><text x="450" y="1118" font-size="54" fill="#e6edf3" font-weight="700">4</text></g></g><text x="656" y="157" font-size="23" fill="#9da7b3" >días</text><text x="450" y="186" font-size="19" fill="#9da7b3" >En el período mostrado</text></g><g class="tile" style="animation-delay:0.63s"><rect x="24" y="215" width="388" height="129" rx="9" fill="#161b22" stroke="#30363d"/><text x="46" y="246" font-size="24" fill="#9da7b3" >Contribuciones</text><defs><clipPath id="counter-2"><rect x="42" y="256" width="352" height="59"/></clipPath></defs><g clip-path="url(#counter-2)"><g class="counter-strip" data-metric="contributions" transform="translate(0 -960)" style="animation-delay:0.88s"><text x="46" y="303" font-size="54" fill="#e6edf3" font-weight="700">0</text><text x="46" y="383" font-size="54" fill="#e6edf3" font-weight="700">63</text><text x="46" y="463" font-size="54" fill="#e6edf3" font-weight="700">116</text><text x="46" y="543" font-size="54" fill="#e6edf3" font-weight="700">160</text><text x="46" y="623" font-size="54" fill="#e6edf3" font-weight="700">194</text><text x="46" y="703" font-size="54" fill="#e6edf3" font-weight="700">221</text><text x="46" y="783" font-size="54" fill="#e6edf3" font-weight="700">242</text><text x="46" y="863" font-size="54" fill="#e6edf3" font-weight="700">256</text><text x="46" y="943" font-size="54" fill="#e6edf3" font-weight="700">266</text><text x="46" y="1023" font-size="54" fill="#e6edf3" font-weight="700">272</text><text x="46" y="1103" font-size="54" fill="#e6edf3" font-weight="700">275</text><text x="46" y="1183" font-size="54" fill="#e6edf3" font-weight="700">276</text><text x="46" y="1263" font-size="54" fill="#e6edf3" font-weight="700">276</text></g></g><text x="46" y="331" font-size="19" fill="#9da7b3" >En el último año</text></g><g class="tile" style="animation-delay:0.77s"><rect x="428" y="215" width="388" height="129" rx="9" fill="#161b22" stroke="#30363d"/><text x="450" y="246" font-size="24" fill="#9da7b3" >Días activos</text><defs><clipPath id="counter-3"><rect x="446" y="256" width="352" height="59"/></clipPath></defs><g clip-path="url(#counter-3)"><g class="counter-strip" data-metric="active-days" transform="translate(0 -960)" style="animation-delay:1.02s"><text x="450" y="303" font-size="54" fill="#e6edf3" font-weight="700">0</text><text x="450" y="383" font-size="54" fill="#e6edf3" font-weight="700">5</text><text x="450" y="463" font-size="54" fill="#e6edf3" font-weight="700">10</text><text x="450" y="543" font-size="54" fill="#e6edf3" font-weight="700">13</text><text x="450" y="623" font-size="54" fill="#e6edf3" font-weight="700">16</text><text x="450" y="703" font-size="54" fill="#e6edf3" font-weight="700">18</text><text x="450" y="783" font-size="54" fill="#e6edf3" font-weight="700">20</text><text x="450" y="863" font-size="54" fill="#e6edf3" font-weight="700">21</text><text x="450" y="943" font-size="54" fill="#e6edf3" font-weight="700">22</text><text x="450" y="1023" font-size="54" fill="#e6edf3" font-weight="700">23</text><text x="450" y="1103" font-size="54" fill="#e6edf3" font-weight="700">23</text><text x="450" y="1183" font-size="54" fill="#e6edf3" font-weight="700">23</text><text x="450" y="1263" font-size="54" fill="#e6edf3" font-weight="700">23</text></g></g><text x="656" y="302" font-size="23" fill="#9da7b3" >de 368</text><text x="450" y="331" font-size="19" fill="#9da7b3" >6% del período</text></g><g class="tile" style="animation-delay:0.91s"><rect x="24" y="360" width="388" height="129" rx="9" fill="#161b22" stroke="#30363d"/><text x="46" y="391" font-size="24" fill="#9da7b3" >Mejor día</text><defs><clipPath id="counter-4"><rect x="42" y="401" width="352" height="59"/></clipPath></defs><g clip-path="url(#counter-4)"><g class="counter-strip" data-metric="best-day" transform="translate(0 -960)" style="animation-delay:1.16s"><text x="46" y="448" font-size="54" fill="#e6edf3" font-weight="700">0</text><text x="46" y="528" font-size="54" fill="#e6edf3" font-weight="700">14</text><text x="46" y="608" font-size="54" fill="#e6edf3" font-weight="700">25</text><text x="46" y="688" font-size="54" fill="#e6edf3" font-weight="700">34</text><text x="46" y="768" font-size="54" fill="#e6edf3" font-weight="700">42</text><text x="46" y="848" font-size="54" fill="#e6edf3" font-weight="700">47</text><text x="46" y="928" font-size="54" fill="#e6edf3" font-weight="700">52</text><text x="46" y="1008" font-size="54" fill="#e6edf3" font-weight="700">55</text><text x="46" y="1088" font-size="54" fill="#e6edf3" font-weight="700">57</text><text x="46" y="1168" font-size="54" fill="#e6edf3" font-weight="700">58</text><text x="46" y="1248" font-size="54" fill="#e6edf3" font-weight="700">59</text><text x="46" y="1328" font-size="54" fill="#e6edf3" font-weight="700">59</text><text x="46" y="1408" font-size="54" fill="#e6edf3" font-weight="700">59</text></g></g><text x="46" y="476" font-size="19" fill="#9da7b3" >4 may</text></g><g class="tile" style="animation-delay:1.05s"><rect x="428" y="360" width="388" height="129" rx="9" fill="#161b22" stroke="#30363d"/><text x="450" y="391" font-size="24" fill="#9da7b3" >Promedio diario</text><defs><clipPath id="counter-5"><rect x="446" y="401" width="352" height="59"/></clipPath></defs><g clip-path="url(#counter-5)"><g class="counter-strip" data-metric="daily-average" transform="translate(0 -960)" style="animation-delay:1.30s"><text x="450" y="448" font-size="54" fill="#e6edf3" font-weight="700">0,0</text><text x="450" y="528" font-size="54" fill="#e6edf3" font-weight="700">2,8</text><text x="450" y="608" font-size="54" fill="#e6edf3" font-weight="700">5,1</text><text x="450" y="688" font-size="54" fill="#e6edf3" font-weight="700">6,9</text><text x="450" y="768" font-size="54" fill="#e6edf3" font-weight="700">8,4</text><text x="450" y="848" font-size="54" fill="#e6edf3" font-weight="700">9,6</text><text x="450" y="928" font-size="54" fill="#e6edf3" font-weight="700">10,5</text><text x="450" y="1008" font-size="54" fill="#e6edf3" font-weight="700">11,1</text><text x="450" y="1088" font-size="54" fill="#e6edf3" font-weight="700">11,6</text><text x="450" y="1168" font-size="54" fill="#e6edf3" font-weight="700">11,8</text><text x="450" y="1248" font-size="54" fill="#e6edf3" font-weight="700">11,9</text><text x="450" y="1328" font-size="54" fill="#e6edf3" font-weight="700">12,0</text><text x="450" y="1408" font-size="54" fill="#e6edf3" font-weight="700">12,0</text></g></g><text x="450" y="476" font-size="19" fill="#9da7b3" >Por día con actividad</text></g><rect x="24" y="513" width="792" height="302" rx="9" fill="#161b22" stroke="#30363d"/><text x="46" y="551" font-size="24" fill="#9da7b3" >Actividad mensual</text><rect class="bar" x="60.02" y="766.00" width="33.19" height="0.00" rx="3" fill="#26a641" style="animation-delay:1.50s"><title>2025-10: 0 contribuciones</title></rect><text x="76.61538461538461" y="797" font-size="15" fill="#9da7b3" text-anchor="middle">Oct</text><rect class="bar" x="117.25" y="766.00" width="33.19" height="0.00" rx="3" fill="#26a641" style="animation-delay:1.58s"><title>2025-11: 0 contribuciones</title></rect><text x="133.84615384615384" y="797" font-size="15" fill="#9da7b3" text-anchor="middle">Nov</text><rect class="bar" x="174.48" y="766.00" width="33.19" height="0.00" rx="3" fill="#26a641" style="animation-delay:1.66s"><title>2025-12: 0 contribuciones</title></rect><text x="191.07692307692307" y="797" font-size="15" fill="#9da7b3" text-anchor="middle">Dic</text><rect class="bar" x="231.71" y="766.00" width="33.19" height="0.00" rx="3" fill="#26a641" style="animation-delay:1.74s"><title>2026-01: 0 contribuciones</title></rect><text x="248.30769230769232" y="797" font-size="15" fill="#9da7b3" text-anchor="middle">Ene</text><rect class="bar" x="288.94" y="766.00" width="33.19" height="0.00" rx="3" fill="#26a641" style="animation-delay:1.82s"><title>2026-02: 0 contribuciones</title></rect><text x="305.53846153846155" y="797" font-size="15" fill="#9da7b3" text-anchor="middle">Feb</text><rect class="bar" x="346.17" y="766.00" width="33.19" height="0.00" rx="3" fill="#26a641" style="animation-delay:1.90s"><title>2026-03: 0 contribuciones</title></rect><text x="362.76923076923083" y="797" font-size="15" fill="#9da7b3" text-anchor="middle">Mar</text><rect class="bar" x="403.40" y="766.00" width="33.19" height="0.00" rx="3" fill="#26a641" style="animation-delay:1.98s"><title>2026-04: 0 contribuciones</title></rect><text x="420.00000000000006" y="797" font-size="15" fill="#9da7b3" text-anchor="middle">Abr</text><rect class="bar" x="460.63" y="588.00" width="33.19" height="178.00" rx="3" fill="#39d353" style="animation-delay:2.06s"><title>2026-05: 211 contribuciones</title></rect><text x="477.2307692307693" y="797" font-size="15" fill="#9da7b3" text-anchor="middle">May</text><text x="477.2307692307693" y="576.0" font-size="16" fill="#e6edf3" text-anchor="middle">211</text><rect class="bar" x="517.86" y="755.03" width="33.19" height="10.97" rx="3" fill="#26a641" style="animation-delay:2.14s"><title>2026-06: 13 contribuciones</title></rect><text x="534.4615384615385" y="797" font-size="15" fill="#9da7b3" text-anchor="middle">Jun</text><rect class="bar" x="575.10" y="765.16" width="33.19" height="0.84" rx="3" fill="#26a641" style="animation-delay:2.22s"><title>2026-07: 1 contribuciones</title></rect><text x="591.6923076923077" y="797" font-size="15" fill="#9da7b3" text-anchor="middle">Jul</text><rect class="bar" x="632.33" y="766.00" width="33.19" height="0.00" rx="3" fill="#26a641" style="animation-delay:2.30s"><title>2026-08: 0 contribuciones</title></rect><text x="648.923076923077" y="797" font-size="15" fill="#9da7b3" text-anchor="middle">Ago</text><rect class="bar" x="689.56" y="737.32" width="33.19" height="28.68" rx="3" fill="#26a641" style="animation-delay:2.38s"><title>2026-09: 34 contribuciones</title></rect><text x="706.1538461538462" y="797" font-size="15" fill="#9da7b3" text-anchor="middle">Sep</text><rect class="bar" x="746.79" y="751.66" width="33.19" height="14.34" rx="3" fill="#26a641" style="animation-delay:2.46s"><title>2026-10: 17 contribuciones</title></rect><text x="763.3846153846155" y="797" font-size="15" fill="#9da7b3" text-anchor="middle">Oct</text><path d="M24 838H816" stroke="#30363d"/><text x="25" y="862" font-size="18" fill="#bc7886" >Actividad pública</text><text x="816" y="862" font-size="18" fill="#9da7b3" text-anchor="end">Actualización diaria</text></svg>